<svg width="160" height="129" viewBox="0 0 160 129" fill="none" xmlns="http://www.w3.org/2000/svg">
<path fill-rule="evenodd" clip-rule="evenodd" d="M0.558324 125.024V123.751L1.30186 123.677C2.92779 123.521 4.01174 123.032 4.9434 122.036C5.29949 121.659 5.60631 121.211 5.68246 120.958C5.75637 120.721 5.85267 120.474 5.89746 120.414C6.20652 119.981 6.21548 118.387 6.21548 63.8851C6.21548 9.71058 6.211 8.64434 6.00944 7.99922C5.81236 7.06289 5.20767 6.37745 4.80679 5.81745C4.03638 5.06705 2.21561 4.37041 1.02191 4.37041H0.551605L0.580719 3.10929L0.612073 1.84817L12.6453 1.81905C22.2351 1.79441 24.6807 1.81905 24.6875 1.93105C24.7009 2.22673 24.6673 4.30993 24.6471 4.32785C24.6359 4.33681 24.3134 4.37937 23.9327 4.41745C22.6629 4.54961 21.3998 4.99313 21.0571 5.42545C20.981 5.52177 20.8533 5.60241 20.7727 5.60241C20.5666 5.60241 19.7806 6.67761 19.5028 7.33841C19.373 7.64753 19.2095 8.30386 19.1378 8.79666C19.0348 9.4933 19.0146 21.8514 19.0415 64.5481C19.0751 116.539 19.0863 119.439 19.2632 120.06C19.4737 120.788 19.8343 121.473 20.2755 121.986C20.5398 122.293 21.6148 123.093 21.785 123.109C21.8208 123.113 22.0358 123.2 22.2598 123.303C22.486 123.406 23.0862 123.548 23.5945 123.619C24.1029 123.689 24.58 123.763 24.6539 123.785C24.7502 123.814 24.786 124.166 24.786 125.06V126.296H12.6722H0.558324V125.024ZM99.4466 70.2534C100.974 70.0541 102.244 69.3955 103.097 68.3584C103.921 67.3593 104.714 64.9805 105.041 62.5321C105.11 62.008 105.213 61.2509 105.267 60.8499C105.384 59.9987 105.54 57.2099 105.69 53.319C105.749 51.7958 105.796 44.6591 105.796 37.462C105.793 22.5346 105.67 17.8933 105.162 13.6149C105.05 12.6786 104.889 11.5944 104.837 11.4556C104.801 11.3503 104.795 11.3279 104.51 10.1407C103.628 6.44916 101.791 5.0402 97.6661 4.89012C96.4366 4.84532 96.1969 4.86324 96.1454 5.00436C96.0536 5.25524 96.0738 70.0765 96.1656 70.2198C96.2081 70.287 96.3156 70.3721 96.403 70.4057C96.6045 70.4864 98.3223 70.4013 99.4466 70.2534ZM76.8358 126.668C76.7978 126.628 76.7664 125.873 76.7664 124.99C76.7664 123.149 76.6343 123.335 78.0161 123.221C79.4517 123.104 80.9231 122.347 81.5793 121.391C81.7584 121.126 82.0115 120.62 82.1391 120.268L82.3698 119.628L82.3967 64.2682C82.4124 33.8199 82.3922 8.83262 82.3519 8.74078C82.3138 8.6467 82.2892 8.5347 82.2982 8.4899C82.3385 8.29054 81.9421 7.28925 81.6218 6.77853C80.9678 5.73693 79.6644 5.03357 78.0878 4.87005C77.7429 4.83421 77.3017 4.78045 77.1091 4.75133L76.7597 4.69533L76.7888 3.04669L76.8179 1.40028H88.8802C98.329 1.40028 101.126 1.43164 101.794 1.54588C102.264 1.62876 102.768 1.70941 102.916 1.72509C103.209 1.76317 104.04 2.00285 105.263 2.40605C106.801 2.91453 108.694 3.98301 109.973 5.06493C110.611 5.60701 112.082 7.13917 112.6 7.80446C112.846 8.1203 113.363 8.87742 113.748 9.48446C114.134 10.0915 114.49 10.6448 114.541 10.712C114.638 10.8397 115.48 12.6429 116.028 13.895C116.407 14.7597 117.256 17.3491 117.497 18.3773C117.594 18.7782 117.712 19.1613 117.762 19.2285C117.813 19.2957 117.831 19.3763 117.802 19.4054C117.773 19.4368 117.849 19.8602 117.968 20.3485C118.496 22.4944 118.976 25.9597 119.374 30.536C119.591 33.0157 119.556 42.7575 119.32 45.3604C118.586 53.5207 117.444 58.4375 115.155 63.3162C114.911 63.8404 114.68 64.2929 114.644 64.3242C114.608 64.3556 114.499 64.5437 114.402 64.7409C114.232 65.0926 113.787 65.834 113.612 66.0602C113.565 66.1229 113.408 66.3492 113.262 66.5665C112.685 67.4311 110.582 69.8145 110.398 69.8145C110.351 69.8145 110.221 69.922 110.109 70.0519C109.764 70.4529 107.914 71.6916 106.965 72.1575C105.908 72.675 104.3 73.2775 103.769 73.3559C103.563 73.385 103.227 73.4545 103.021 73.5105C102.17 73.7434 100.701 73.8868 98.4858 73.9495L96.1365 74.019L96.1096 96.4078C96.0805 120.564 96.0625 119.704 96.6247 120.851C97.254 122.139 98.694 123.046 100.383 123.214C100.748 123.252 101.205 123.306 101.397 123.337L101.747 123.393L101.717 125.042L101.688 126.688L89.2968 126.715C82.4818 126.731 76.8739 126.711 76.8358 126.668ZM29.4286 126.605C29.3502 126.386 29.3413 126.108 29.3592 124.708C29.3793 123.207 29.283 123.326 30.5506 123.212C33.003 122.992 34.4117 121.787 34.8708 119.516C35.1082 118.342 35.1149 9.99292 34.8797 8.69372C34.5998 7.16156 34.0309 6.24988 32.9515 5.61148C32.3266 5.24187 30.8261 4.81851 30.1296 4.81627C29.3256 4.81403 29.3234 4.81179 29.3614 3.06235C29.3793 2.21339 29.4174 1.47867 29.4443 1.43163C29.4734 1.38235 33.6905 1.34427 38.8191 1.34427H48.1402L48.3104 2.15515C48.4023 2.60315 48.5523 3.42299 48.6441 3.97627C49.0876 6.65756 49.2421 7.567 49.4974 8.96476C49.6497 9.7958 49.8199 10.8038 49.8759 11.2048C49.9341 11.6057 50.0013 12.0089 50.0282 12.103C50.0551 12.1948 50.176 12.8758 50.3014 13.615C50.4246 14.3542 50.5724 15.2368 50.6306 15.575C50.6889 15.9155 50.7583 16.3433 50.7874 16.5293C50.8613 17.0086 51.1995 18.9552 51.5287 20.7875C51.6832 21.6499 51.8736 22.7587 51.952 23.2515C52.1199 24.3334 52.5455 26.8265 52.9239 28.968C53.2308 30.7062 53.457 32.0144 53.5555 32.6102C53.719 33.6138 54.0773 35.7306 54.5678 38.6045C54.8634 40.3315 55.1792 42.1975 55.271 42.753C55.3628 43.3063 55.486 43.9872 55.542 44.265C55.6002 44.5427 55.6943 45.096 55.7525 45.497C55.8108 45.8979 56.0661 47.4122 56.3214 48.8592C56.5767 50.3085 56.8902 52.1229 57.0179 52.8935C57.3583 54.9565 57.6562 56.6925 57.7681 57.2637C57.8241 57.5415 58.0167 58.6772 58.2004 59.786C58.384 60.8948 58.6505 62.4583 58.7939 63.2602C58.9372 64.0621 59.0783 64.8685 59.1074 65.0522C59.1343 65.2381 59.2037 65.666 59.2619 66.0065C59.6919 68.5578 59.7837 69.1828 60.3347 73.4007C60.4937 74.6215 61.1611 80.9316 61.235 81.9194C61.2686 82.3809 61.3179 82.8849 61.3447 83.0395C61.3694 83.194 61.4186 83.7473 61.4522 84.2714C61.4858 84.7956 61.5575 85.5281 61.6112 85.8977C61.665 86.2673 61.7635 87.0244 61.8285 87.5777C61.8957 88.1332 61.9673 88.6081 61.992 88.635C62.0188 88.6596 62.0256 70.6074 62.0099 48.5143L61.983 8.34876L61.7165 7.62524C61.5194 7.08764 61.2887 6.73372 60.8274 6.25212C60.4847 5.89372 60.1533 5.60252 60.0906 5.60252C60.0301 5.60252 59.7815 5.50844 59.5396 5.3942C58.7827 5.03355 58.3795 4.92603 57.5352 4.85435C57.0851 4.81627 56.6528 4.74459 56.5744 4.69307C56.4154 4.59227 56.3079 2.39483 56.4289 1.72507L56.4961 1.34427H64.4846C71.6714 1.34427 72.4799 1.36219 72.5381 1.52123C72.5739 1.61755 72.6031 2.34779 72.6031 3.14299C72.6031 4.81851 72.6478 4.75131 71.4833 4.85211C71.0712 4.88571 70.5606 4.99099 70.3478 5.08507C70.135 5.1814 69.938 5.23291 69.9111 5.20379C69.8842 5.17467 69.5998 5.27772 69.284 5.43228C68.3367 5.89372 67.6469 6.66204 67.2482 7.7014L66.9996 8.34876L66.9459 67.5185L66.8921 126.688L62.1689 126.717L57.4434 126.746L57.3471 126.493C57.2956 126.354 57.1747 125.736 57.0806 125.12C56.9843 124.504 56.8365 123.646 56.7514 123.214C56.6663 122.784 56.5521 122.128 56.4961 121.758C56.3729 120.931 56.084 119.238 55.4569 115.649C55.1926 114.14 54.9082 112.475 54.8253 111.953C54.7425 111.429 54.579 110.471 54.4625 109.823C54.3438 109.176 54.0549 107.487 53.8175 106.069C53.5801 104.651 53.3383 103.264 53.28 102.987C53.2218 102.709 53.027 101.575 52.8478 100.467C52.6664 99.3556 52.3753 97.642 52.1983 96.6564C51.7773 94.3179 51.578 93.1598 51.513 92.6782C51.4839 92.4609 51.3652 91.7553 51.251 91.1079C50.924 89.2711 50.0797 84.3655 50.0237 83.9914C49.9968 83.8078 49.9274 83.3777 49.8692 83.0395C49.6251 81.6058 49.3093 79.7668 49.1167 78.6692C49.0047 78.0218 48.8367 77.0138 48.7471 76.427C48.6553 75.8423 48.512 75.009 48.4291 74.579C48.3463 74.1466 48.1245 72.8855 47.9387 71.7767C47.7528 70.6679 47.5333 69.3821 47.4504 68.9185C47.3676 68.457 47.1817 67.3729 47.0384 66.5105C46.8928 65.6481 46.7024 64.5124 46.6106 63.9882C46.5188 63.4641 46.353 62.4807 46.2411 61.8042C46.1269 61.1255 45.8156 59.3088 45.5468 57.7677C45.2781 56.2288 45.0317 54.7908 45.0003 54.5757C44.969 54.3584 44.8503 53.6775 44.7383 53.0615C44.4897 51.7063 43.9769 48.7315 43.838 47.8512C43.8044 47.6362 43.6544 46.7536 43.5088 45.889C43.361 45.0266 43.146 43.7408 43.0273 43.033C42.9086 42.3229 42.7473 41.3911 42.6667 40.9587C42.5861 40.5287 42.4674 39.8477 42.4002 39.4467C42.2972 38.8039 41.9232 36.6512 41.6343 35.0205C41.5201 34.3731 41.4909 34.1738 41.3275 32.9194C41.2603 32.4131 41.1908 31.9741 41.1729 31.9405C41.1505 31.9091 41.1102 31.6291 41.0744 31.3222C40.79 28.753 40.1494 23.7465 40.0711 23.4777L39.9748 23.1417L39.9031 23.5897C39.8628 23.8361 39.8426 45.5463 39.8605 71.8327L39.8896 119.63L40.1203 120.268C40.3779 120.987 40.9781 121.926 41.1774 121.926C41.2491 121.926 41.3319 121.995 41.3633 122.078C41.5044 122.466 43.0922 123.088 44.2658 123.216C44.6174 123.254 45.0384 123.31 45.1997 123.344L45.4931 123.402V125.073V126.744H37.4844C31.1755 126.744 29.4644 126.715 29.4264 126.605H29.4286ZM140.379 128.032C139.761 127.942 139.017 127.795 138.724 127.703C138.431 127.611 137.96 127.479 137.68 127.407C137.401 127.335 137.147 127.232 137.114 127.179C137.082 127.125 136.971 127.08 136.867 127.08C136.762 127.08 136.225 126.867 135.672 126.605C133.822 125.725 132.395 124.827 131.537 124C131.282 123.754 131.04 123.552 131.002 123.552C130.964 123.554 130.767 123.389 130.563 123.189C130.359 122.988 130.144 122.822 130.084 122.822C130.021 122.822 129.829 122.739 129.652 122.64C129.137 122.349 127.894 122.304 127.311 122.555C127.043 122.672 126.823 122.804 126.823 122.851C126.823 122.898 126.756 122.936 126.673 122.936C126.272 122.936 125.022 124.643 124.407 126.036L124.048 126.84L123.186 126.876C122.711 126.899 122.232 126.876 122.12 126.834C121.918 126.755 121.916 126.285 121.941 101.002L121.968 75.2509H123.213C123.898 75.2509 124.48 75.2778 124.51 75.3069C124.536 75.3382 124.592 75.9184 124.63 76.5949C124.669 77.2736 124.769 78.5101 124.852 79.3411C124.937 80.1744 125.034 81.1309 125.065 81.4714C125.096 81.8096 125.168 82.4144 125.222 82.8154C125.278 83.2163 125.374 84.0227 125.434 84.6096C125.495 85.1943 125.616 86.153 125.701 86.7376C126.149 89.7863 126.527 92.2637 126.66 93.0141C126.742 93.4756 126.91 94.4343 127.036 95.1421C127.417 97.2992 128.091 100.579 128.429 101.923C128.489 102.169 128.729 103.152 128.957 104.109C129.186 105.063 129.448 106.123 129.542 106.461C129.636 106.801 129.732 107.153 129.755 107.245C130.084 108.56 131.479 112.829 131.638 113.011C131.69 113.071 131.732 113.183 131.732 113.261C131.732 113.338 131.86 113.694 132.017 114.05C132.173 114.406 132.308 114.724 132.314 114.753C132.494 115.43 133.472 117.473 134.263 118.819C135.508 120.934 136.87 122.412 138.238 123.129C139.024 123.541 139.071 123.552 140.218 123.55C141.83 123.545 142.314 123.337 143.705 122.054C143.929 121.845 144.115 121.635 144.115 121.583C144.115 121.532 144.236 121.35 144.386 121.182C144.688 120.839 145.248 119.802 145.208 119.663C145.192 119.614 145.223 119.574 145.273 119.574C145.324 119.574 145.447 119.334 145.546 119.041C145.647 118.747 145.768 118.427 145.819 118.331C146.025 117.921 146.556 115.392 146.677 114.229C146.845 112.634 146.76 107.888 146.527 105.733C146.184 102.557 145.523 98.8045 144.643 95.0301C144.52 94.5059 144.379 93.9012 144.33 93.6861C143.705 90.9667 142.76 87.6403 141.432 83.4874C140.968 82.0403 140.572 80.7792 140.547 80.6851C140.475 80.4051 139.972 78.8752 139.736 78.2211C139.613 77.8806 139.327 77.0406 139.1 76.3507C138.872 75.6608 138.514 74.6461 138.305 74.095C138.095 73.544 137.922 73.0602 137.922 73.0198C137.922 72.9795 137.844 72.76 137.748 72.5293C137.651 72.3008 137.56 72.0634 137.546 72.0006C137.535 71.9402 137.306 71.3085 137.042 70.6006C136.066 67.9641 135.36 66.0355 135.047 65.1328C134.868 64.6221 134.628 63.9657 134.514 63.6745C134.068 62.5545 133.517 61.0112 133.515 60.879C133.513 60.8006 133.477 60.7379 133.434 60.7379C133.394 60.7379 133.333 60.6259 133.302 60.487C133.271 60.3481 132.998 59.5529 132.695 58.7219C132.393 57.8886 132.084 57.0329 132.008 56.8157C131.931 56.6006 131.578 55.6172 131.219 54.6316C130.863 53.646 130.514 52.6627 130.442 52.4454C130.37 52.2304 130.274 51.9526 130.227 51.8294C130.035 51.3276 129.486 49.7507 129.177 48.8032C128.995 48.2499 128.801 47.6944 128.745 47.5712C128.689 47.448 128.523 46.9686 128.375 46.5072C128.093 45.6156 127.486 43.7251 127.421 43.5369C127.401 43.4742 127.372 43.3734 127.358 43.3129C127.343 43.2502 127.284 43.0732 127.226 42.9209C127.168 42.7663 127.013 42.2623 126.879 41.7987C126.745 41.3372 126.442 40.3046 126.205 39.5027C125.611 37.4889 124.861 34.5881 124.725 33.7862C124.693 33.6025 124.622 33.3628 124.568 33.2553C124.512 33.1455 124.487 33.0582 124.514 33.0582C124.539 33.0582 124.519 32.87 124.467 32.6393C124.373 32.2092 124.044 30.1507 123.842 28.7439C123.654 27.4268 123.603 26.477 123.607 24.3737C123.609 22.6444 123.659 21.6521 123.887 18.8812C123.936 18.2854 124.342 15.8057 124.53 14.9433C124.613 14.5647 124.702 14.1257 124.729 13.9689C124.884 13.0796 125.889 10.0533 126.451 8.7967C126.671 8.3039 126.852 7.83574 126.854 7.75958C126.857 7.68342 126.888 7.6207 126.924 7.6207C126.962 7.6207 127.157 7.32949 127.358 6.97557C127.562 6.62165 127.862 6.12885 128.026 5.88245C128.191 5.63605 128.438 5.25749 128.577 5.04245C129.356 3.83061 131.419 2.01397 132.834 1.28821C133.846 0.770765 135.479 0.224204 136.008 0.224204C136.173 0.224204 136.339 0.172684 136.375 0.112204C136.455 -0.0266764 139.168 -0.0423564 139.248 0.0965238C139.28 0.148044 139.555 0.221964 139.862 0.260044C140.673 0.360844 141.92 0.752845 142.811 1.18741C143.241 1.39797 143.638 1.56821 143.696 1.56821C143.754 1.56821 143.862 1.62197 143.931 1.68693C144.003 1.75189 144.493 2.12373 145.022 2.51573C145.548 2.90549 146.231 3.47221 146.538 3.77461C146.843 4.07701 147.414 4.49813 147.806 4.71093C148.439 5.05589 148.605 5.09845 149.331 5.09173C149.917 5.08725 150.283 5.02005 150.643 4.84981C151.225 4.57429 152.148 3.72533 152.047 3.55509C152.009 3.49013 152.029 3.47221 152.092 3.51253C152.215 3.59317 152.708 2.83381 153.098 1.96021L153.348 1.40021H155.375H157.402L157.429 26.215C157.451 45.9942 157.429 51.0499 157.321 51.1216C157.131 51.247 155.239 51.2336 155.006 51.1059C154.853 51.0185 154.798 50.7945 154.735 50.0128C154.692 49.4707 154.643 48.9017 154.625 48.7472C154.607 48.5948 154.56 47.9139 154.518 47.2352C154.475 46.5564 154.423 45.9068 154.403 45.7904C154.383 45.6761 154.316 44.8428 154.256 43.9424C154.193 43.0419 154.094 41.951 154.036 41.5209C153.978 41.0886 153.808 39.6774 153.658 38.3827C153.508 37.0879 153.288 35.3228 153.169 34.4604C153.051 33.598 152.934 32.7401 152.912 32.5542C152.889 32.3705 152.746 31.4118 152.596 30.4262C152.444 29.4383 152.253 28.1794 152.173 27.6239C151.87 25.5833 151.349 22.7026 150.932 20.7874C150.813 20.2342 150.643 19.4524 150.558 19.0514C150.157 17.1833 149.324 14.0316 149.149 13.7292C149.116 13.6687 149.08 13.5433 149.073 13.4492C149.051 13.149 148.771 12.4389 148.675 12.4389C148.625 12.4389 148.612 12.3919 148.645 12.3359C148.764 12.1321 147.158 8.35542 146.737 7.84918C146.659 7.75286 146.518 7.5199 146.426 7.32725C146.334 7.13685 145.83 6.51861 145.308 5.95637C144.52 5.10741 144.218 4.86325 143.537 4.53173C142.628 4.09269 142.399 4.03445 141.232 3.95605C138.946 3.80373 136.747 5.22165 135.707 7.52214C135.183 8.6847 135.19 8.6623 134.924 9.9055C134.637 11.2495 134.532 14.3609 134.718 16.1461C134.789 16.8495 134.863 17.5529 134.877 17.7052C134.962 18.5519 135.067 19.2575 135.152 19.5554C135.206 19.7391 135.275 20.1692 135.311 20.5074C135.345 20.8457 135.414 21.2758 135.466 21.4594C135.517 21.6454 135.62 22.1494 135.692 22.5817C135.763 23.0118 135.983 24.0466 136.18 24.8777C136.379 25.711 136.567 26.542 136.601 26.7279C136.635 26.9116 136.726 27.2655 136.803 27.5119C136.879 27.7583 137.047 28.3631 137.174 28.8559C137.304 29.3487 137.472 29.9558 137.551 30.2022C137.627 30.4486 137.938 31.4812 138.243 32.4982C138.545 33.5151 138.93 34.7516 139.098 35.2444C139.266 35.7372 139.508 36.4675 139.633 36.8684C139.761 37.2694 139.913 37.6614 139.974 37.7375C140.034 37.8137 140.059 37.8787 140.028 37.8787C139.98 37.8787 140.278 38.8239 140.52 39.4467C140.556 39.5385 140.845 40.3449 141.163 41.2387C141.481 42.1324 141.938 43.3689 142.18 43.9849C142.422 44.6009 142.619 45.152 142.619 45.2102C142.619 45.2684 142.719 45.5462 142.843 45.8262C143.246 46.7491 143.349 46.9977 143.747 48.0192C143.962 48.5747 144.227 49.2041 144.332 49.4214C144.437 49.6364 144.61 50.0643 144.715 50.3734C144.82 50.6803 144.968 51.0588 145.042 51.2134C145.118 51.368 145.181 51.5494 145.181 51.6188C145.181 51.6883 145.27 51.863 145.38 52.0108C145.492 52.1587 145.584 52.3289 145.588 52.3894C145.606 52.6201 146.088 53.7916 146.166 53.7916C146.211 53.7916 146.249 53.8723 146.249 53.9686C146.249 54.1254 147.743 57.7654 148.603 59.7075C148.775 60.095 148.916 60.4758 148.916 60.552C148.916 60.6281 148.981 60.7894 149.06 60.9104C149.138 61.0313 149.456 61.7616 149.765 62.5321C150.072 63.3027 150.412 64.1337 150.518 64.3801C150.93 65.3366 152.896 70.6141 153.42 72.1709C153.595 72.6928 153.803 73.273 153.882 73.4589C153.958 73.6426 154.103 74.0726 154.204 74.4109C154.305 74.7491 154.417 75.0784 154.45 75.1389C154.486 75.2016 154.522 75.3024 154.531 75.3629C154.56 75.56 155.541 78.7139 155.662 79.0051C155.727 79.1597 155.79 79.3613 155.803 79.4531C155.814 79.5472 155.955 80.0759 156.112 80.6314C156.271 81.1846 156.441 81.7917 156.493 81.9754C157.355 85.0711 158.502 90.857 158.784 93.5181C158.882 94.4432 158.985 95.3504 159.01 95.5364C159.203 96.8468 159.295 100.458 159.187 102.498C159.12 103.724 159.046 104.85 159.017 105.005C158.99 105.159 158.936 105.639 158.896 106.069C158.654 108.721 157.857 112.209 156.847 115.036C156.497 116.014 156.363 116.348 155.946 117.269C155.837 117.511 155.747 117.755 155.747 117.811C155.747 117.867 155.653 118.039 155.537 118.196C155.42 118.351 155.351 118.523 155.382 118.577C155.413 118.633 155.4 118.678 155.351 118.678C155.304 118.678 155.145 118.918 154.999 119.209C154.11 120.994 152.209 123.44 150.571 124.903C150.079 125.344 148.292 126.547 147.635 126.883C145.517 127.963 142.834 128.388 140.379 128.032Z" fill="white"/>
</svg>
