<svg width="108" height="39" viewBox="0 0 108 39" fill="none" xmlns="http://www.w3.org/2000/svg">
<path d="M81.9709 17.5533V3.98542C81.9709 3.82167 81.8071 3.68131 81.6434 3.7281L81.503 3.75149C81.1989 3.82167 80.848 3.89185 80.4738 3.96203C80.0995 4.03221 79.7486 4.10239 79.4679 4.14917L79.3275 4.17257C79.1637 4.19596 79 4.07899 79 3.91524V2.72221C79 2.60524 79.0702 2.48828 79.1871 2.46489C79.3743 2.4181 79.5848 2.34792 79.8188 2.27774C80.1463 2.18417 80.4504 2.06721 80.8012 1.92685C81.1288 1.78649 81.4563 1.59935 81.7604 1.38881C82.0177 1.20167 82.2516 0.991134 82.4621 0.757205C82.5089 0.687027 82.5791 0.663635 82.6727 0.663635H83.9827C84.123 0.663635 84.24 0.780599 84.24 0.920956V17.5299C84.24 17.6702 84.123 17.7872 83.9827 17.7872H82.2516C82.1112 17.834 81.9709 17.6936 81.9709 17.5533Z" fill="white"/>
<path d="M88.3572 17.5534V16.2902C88.3572 16.2434 88.3806 16.1966 88.404 16.1498L92.7316 9.41268C93.0591 8.89804 93.3633 8.43018 93.6206 7.98572C93.9013 7.54125 94.1118 7.09679 94.299 6.60554C94.4861 6.11429 94.5563 5.55286 94.5563 4.92125C94.5563 4.12589 94.4393 3.51768 94.182 3.04982C93.9247 2.60536 93.4802 2.37143 92.8486 2.37143C92.3106 2.37143 91.8895 2.51179 91.6088 2.81589C91.3281 3.12 91.1175 3.49429 91.0006 3.98554C90.8836 4.47679 90.8368 4.99143 90.8368 5.52947V5.83357C90.8368 5.97393 90.7199 6.0909 90.5795 6.0909H88.8484C88.7081 6.0909 88.5677 5.97393 88.5677 5.83357V5.50607C88.5677 4.47679 88.7081 3.58786 88.9888 2.83929C89.2695 2.09071 89.714 1.52929 90.3222 1.10821C90.9304 0.687143 91.7491 0.5 92.7784 0.5C94.1586 0.5 95.1879 0.897679 95.8663 1.66964C96.5447 2.44161 96.8722 3.54107 96.8722 4.92125C96.8722 5.64643 96.7786 6.30143 96.6149 6.83947C96.4277 7.40089 96.2172 7.91554 95.9365 8.3834C95.6558 8.87465 95.3516 9.3659 95.0008 9.85715L91.3281 15.448C91.2111 15.6352 91.3281 15.8691 91.562 15.8691H96.2172C96.3575 15.8691 96.4745 15.9861 96.4745 16.1498V17.5066C96.4745 17.647 96.3575 17.7639 96.2172 17.7639H88.6613C88.4741 17.8341 88.3572 17.6938 88.3572 17.5534Z" fill="white"/>
<path d="M103.493 17.9979C102.463 17.9979 101.645 17.8108 101.036 17.4131C100.428 17.0154 99.9836 16.454 99.7263 15.7054C99.4924 15.027 99.352 14.2316 99.3286 13.3193C99.3286 13.179 99.4456 13.0386 99.6093 13.0386H101.34C101.481 13.0386 101.598 13.1556 101.598 13.2959C101.621 13.717 101.645 14.1147 101.715 14.5358C101.808 15.027 101.972 15.4247 102.253 15.7522C102.533 16.0797 102.955 16.22 103.516 16.22C104.148 16.22 104.592 16.0329 104.849 15.682C105.107 15.3311 105.294 14.8399 105.364 14.2317C105.434 13.6234 105.481 12.9216 105.481 12.1497C105.481 11.3777 105.434 10.7227 105.364 10.1613C105.27 9.62325 105.107 9.20218 104.826 8.92147C104.569 8.64076 104.124 8.477 103.563 8.477C103.095 8.477 102.697 8.61736 102.37 8.92147C102.089 9.17879 101.878 9.43611 101.715 9.74022C101.668 9.83379 101.574 9.90397 101.481 9.90397H99.9836C99.8433 9.90397 99.7029 9.787 99.7029 9.64665V0.991285C99.7029 0.850928 99.8199 0.710571 99.9836 0.710571H106.838C106.978 0.710571 107.095 0.827535 107.095 0.991285V2.72236C107.095 2.86272 106.978 3.00307 106.838 3.00307H102.019C101.878 3.00307 101.761 3.12004 101.761 3.26039L101.645 7.14361C101.645 7.37754 101.878 7.4945 102.066 7.37754C102.253 7.26057 102.44 7.14361 102.674 7.05004C103.095 6.88629 103.563 6.79272 104.101 6.79272C105.036 6.79272 105.762 7.00325 106.3 7.44772C106.838 7.89218 107.212 8.477 107.423 9.24897C107.633 10.0209 107.75 10.8865 107.75 11.869C107.75 12.7345 107.68 13.5533 107.563 14.3252C107.446 15.0738 107.212 15.7288 106.885 16.2902C106.557 16.8517 106.136 17.2727 105.575 17.6002C105.013 17.9277 104.358 17.9979 103.493 17.9979Z" fill="white"/>
<path d="M79.2529 31.7436L81.657 20.4236C81.6782 20.3214 81.7689 20.25 81.8731 20.25H83.0983C83.2025 20.25 83.2912 20.3233 83.3144 20.4236L85.7319 31.7436C85.7609 31.8806 85.6567 32.0099 85.5159 32.0099H84.418C84.3119 32.0099 84.2212 31.9346 84.2019 31.8285L83.7311 29.2276C83.7118 29.1234 83.6211 29.0463 83.515 29.0463H81.4853C81.3792 29.0463 81.2885 29.1215 81.2692 29.2257L80.7714 31.8304C80.7521 31.9346 80.6614 32.0099 80.5553 32.0099H79.4709C79.3301 32.0099 79.2259 31.8806 79.2549 31.7436H79.2529ZM81.7843 27.8712H83.216C83.353 27.8712 83.4571 27.7458 83.4321 27.6108L82.7105 23.7423C82.6661 23.503 82.3207 23.503 82.2783 23.7423L81.5682 27.6108C81.5432 27.7458 81.6473 27.8712 81.7843 27.8712Z" fill="white"/>
<path d="M88.2139 31.7899V20.47C88.2139 20.3484 88.3123 20.25 88.4338 20.25H89.1863C89.2751 20.25 89.3542 20.3021 89.3889 20.3831L92.2483 27.0725C92.3428 27.2924 92.6709 27.2249 92.6709 26.9856V20.47C92.6709 20.3484 92.7693 20.25 92.8908 20.25H93.815C93.9366 20.25 94.035 20.3484 94.035 20.47V31.7899C94.035 31.9115 93.9366 32.0099 93.815 32.0099H93.1358C93.0471 32.0099 92.968 31.9559 92.9333 31.8748L90.0295 24.9848C89.9368 24.7629 89.6069 24.8305 89.6069 25.0697V31.788C89.6069 31.9095 89.5085 32.0079 89.387 32.0079H88.4338C88.3123 32.0079 88.2139 31.9095 88.2139 31.788V31.7899Z" fill="white"/>
<path d="M97.1123 31.7899V20.47C97.1123 20.3484 97.2107 20.25 97.3323 20.25H98.0847C98.1735 20.25 98.2526 20.3021 98.2873 20.3831L101.147 27.0725C101.241 27.2924 101.569 27.2249 101.569 26.9856V20.47C101.569 20.3484 101.668 20.25 101.789 20.25H102.713C102.835 20.25 102.933 20.3484 102.933 20.47V31.7899C102.933 31.9115 102.835 32.0099 102.713 32.0099H102.034C101.946 32.0099 101.866 31.9559 101.832 31.8748L98.9279 24.9848C98.8353 24.7629 98.5054 24.8305 98.5054 25.0697V31.788C98.5054 31.9095 98.407 32.0079 98.2854 32.0079H97.3323C97.2107 32.0079 97.1123 31.9095 97.1123 31.788V31.7899Z" fill="white"/>
<path d="M106.099 31.7899V20.47C106.099 20.3484 106.197 20.25 106.319 20.25H107.49C107.612 20.25 107.71 20.3484 107.71 20.47V31.7899C107.71 31.9115 107.612 32.0099 107.49 32.0099H106.319C106.197 32.0099 106.099 31.9115 106.099 31.7899Z" fill="white"/>
<path d="M79.4888 35.2501H88.7503V38.1284H79.4888C79.3587 38.1284 79.2502 37.8737 79.2502 37.568V35.836C79.2502 35.5048 79.3587 35.2501 79.4888 35.2501Z" fill="#006221"/>
<path d="M98.2498 35.25H88.7498V38.1283H98.2498V35.25Z" fill="white"/>
<path d="M98.2502 35.25H107.512C107.642 35.25 107.75 35.5047 107.75 35.8104V37.5424C107.75 37.8481 107.642 38.1028 107.512 38.1028H98.2502V35.25Z" fill="#CE2B37"/>
<path d="M107.501 35.3775C107.609 35.3775 107.696 35.5813 107.696 35.836V37.568C107.696 37.8227 107.609 38.0265 107.501 38.0265H79.4888C79.3804 38.0265 79.2936 37.8227 79.2936 37.568V35.836C79.2936 35.5813 79.3804 35.3775 79.4888 35.3775H107.501ZM107.501 35.2501H79.4888C79.3587 35.2501 79.2502 35.5048 79.2502 35.8105V37.5425C79.2502 37.8482 79.3587 38.1029 79.4888 38.1029H107.501C107.631 38.1029 107.739 37.8482 107.739 37.5425V35.8105C107.75 35.5048 107.642 35.2501 107.501 35.2501Z" fill="#B0B0B0"/>
<path d="M72.25 0L72.25 38.25" stroke="white" stroke-width="0.579545"/>
<path d="M27.1425 0.750336H23.465C23.305 0.750336 23.1775 0.877836 23.1775 1.03784V24.4078C23.1775 24.7403 22.71 24.8078 22.615 24.4903L15.65 0.957836C15.615 0.835336 15.5025 0.752836 15.375 0.752836H12.905C12.905 0.752836 12.905 0.752836 12.9 0.752836H9.49746C9.33746 0.752836 9.20996 0.880337 9.20996 1.04034V37.3053C9.20996 37.4653 9.33746 37.5928 9.49746 37.5928H13.175C13.335 37.5928 13.4625 37.4653 13.4625 37.3053V13.9303C13.4625 13.5978 13.93 13.5303 14.025 13.8478L20.9925 37.3828C21.0275 37.5053 21.14 37.5878 21.2675 37.5878H23.7225C23.7225 37.5878 23.735 37.5878 23.74 37.5878H27.1425C27.3025 37.5878 27.43 37.4603 27.43 37.3003V1.03784C27.43 0.877836 27.3025 0.750336 27.1425 0.750336Z" fill="white"/>
<path d="M5.1075 0.750336H0.5625C0.25184 0.750336 0 1.00218 0 1.31284V37.0278C0 37.3385 0.25184 37.5903 0.5625 37.5903H5.1075C5.41816 37.5903 5.67 37.3385 5.67 37.0278V1.31284C5.67 1.00218 5.41816 0.750336 5.1075 0.750336Z" fill="white"/>
<path fill-rule="evenodd" clip-rule="evenodd" d="M45.8349 4.95784C45.0099 2.51034 42.6949 0.750336 39.9699 0.750336H31.5349C31.2249 0.750336 30.9724 1.00284 30.9724 1.31284V37.0328C30.9724 37.3428 31.2249 37.5953 31.5349 37.5953H36.0799C36.3899 37.5953 36.6424 37.3428 36.6424 37.0328V26.0303C36.6424 25.6853 36.9224 25.4053 37.2674 25.4053C38.1824 25.4053 39.9699 25.4053 39.9699 25.4053C42.7049 25.4053 45.0249 23.6328 45.8424 21.1728C46.7674 18.6478 47.2699 15.9228 47.2699 13.0778C47.2699 10.2328 46.7624 7.49034 45.8324 4.95784H45.8349ZM40.8899 20.8278C40.5774 21.8378 39.4499 22.5703 38.3374 22.5703C38.3374 22.5703 37.6999 22.5703 37.2074 22.5703C36.8974 22.5703 36.6449 22.3178 36.6449 22.0078V4.14783C36.6449 3.83783 36.8974 3.58533 37.2074 3.58533C37.6999 3.58533 38.3374 3.58533 38.3374 3.58533C39.3799 3.58533 40.4599 4.23034 40.8249 5.14284C41.7124 7.62284 42.1949 10.2928 42.1949 13.0778C42.1949 15.8628 41.7349 18.4003 40.8899 20.8278Z" fill="white"/>
<path d="M60.8624 18.3178C59.0549 16.4328 54.8674 12.0378 54.0374 10.0553C53.1999 8.06283 53.4049 6.19033 54.3149 4.96783C55.0624 3.96533 56.5724 3.38283 58.0974 3.90283C59.4099 4.35283 60.9899 5.73783 61.3274 9.76033C61.3374 10.0303 61.5524 10.3078 61.9074 10.3078H63.6949C63.9724 10.3078 64.2574 10.0978 64.2699 9.73783C64.4074 7.47783 63.7549 5.13033 62.9849 3.96033C61.6399 1.71783 60.0449 0.847829 57.7174 0.552829C55.3674 0.252829 52.1849 1.21533 50.5349 3.83033C49.0924 6.11783 48.6974 9.80283 49.5399 12.6803C50.6074 16.3278 51.6174 17.4253 53.2874 19.4328C53.5674 19.7703 55.2824 21.6303 55.8849 22.2078C58.5099 24.7103 59.9124 26.6728 60.1499 29.8553C60.3399 32.3803 58.9874 34.6253 56.6474 34.5153C55.2349 34.4503 54.5274 33.9603 53.5724 32.9378C52.6149 31.9128 52.2399 30.6178 52.0499 28.5028C51.9799 27.7178 52.0299 26.3828 52.0349 25.9653C52.0349 25.6878 51.8174 25.4028 51.4724 25.4028H49.2574C48.9174 25.4028 48.6924 25.6853 48.6924 25.9653C48.7049 27.5778 48.7524 29.2603 48.9174 30.2153C49.4524 33.3028 50.0099 34.2578 51.6724 35.9453C53.0549 37.1003 54.6799 37.8353 56.7724 37.8353C60.9299 37.8353 64.0274 35.3728 65.1974 31.7078C65.6274 30.3578 65.7674 28.9278 65.6699 27.5153C65.3649 23.1478 62.8649 20.4128 60.8599 18.3178H60.8624Z" fill="white"/>
</svg>
