<?xml version="1.0" encoding="utf-8"?>
<!-- Generator: Adobe Illustrator 27.9.0, SVG Export Plug-In . SVG Version: 6.00 Build 0)  -->
<svg version="1.1" id="Logo" xmlns="http://www.w3.org/2000/svg" xmlns:xlink="http://www.w3.org/1999/xlink" x="0px" y="0px"
	 viewBox="0 0 410.1 295.4" style="enable-background:new 0 0 410.1 295.4;" xml:space="preserve">
<style type="text/css">
	.st0{fill:#FFFFFF;}
	.st1{fill-rule:evenodd;clip-rule:evenodd;fill:#FFFFFF;}
</style>
<g id="Simbolo">
</g>
<g id="Logotipo">
	<g>
		<path class="st0" d="M182.2,73.6h-14.7c-0.6,0-1.2,0.5-1.2,1.1v93.5c0,1.3-1.9,1.6-2.3,0.3l-27.9-94.1c-0.1-0.5-0.6-0.8-1.1-0.8
			l-9.9,0c0,0,0,0,0,0h-5h-6h-2.6c-0.6,0-1.2,0.5-1.2,1.1v145.1c0,0.6,0.5,1.1,1.2,1.1h14.7c0.6,0,1.1-0.5,1.1-1.1v-93.5
			c0-1.3,1.9-1.6,2.3-0.3l27.9,94.1c0.1,0.5,0.6,0.8,1.1,0.8l9.8,0c0,0,0,0,0.1,0h13.6c0.6,0,1.1-0.5,1.1-1.1V74.8
			C183.4,74.1,182.8,73.6,182.2,73.6z"/>
		<path class="st0" d="M94.1,221H75.9c-1.2,0-2.2-1-2.2-2.2V75.9c0-1.2,1-2.2,2.2-2.2h18.2c1.2,0,2.2,1,2.2,2.2v142.9
			C96.3,220,95.3,221,94.1,221z"/>
		<path class="st1" d="M257,90.5c-3.3-9.8-12.6-16.8-23.5-16.8h-13.3h-20.4c-1.2,0-2.2,1-2.2,2.2v142.9c0,1.2,1,2.2,2.2,2.2H218
			c1.2,0,2.2-1,2.2-2.2v-44c0-1.4,1.1-2.5,2.5-2.5c3.7,0,10.8,0,10.8,0c10.9,0,20.2-7.1,23.5-16.9l0,0c3.7-10.1,5.7-21,5.7-32.4
			C262.7,111.5,260.7,100.6,257,90.5z M237.2,153.9c-1.3,4-5.8,7-10.2,7c0,0-2.6,0-4.5,0c-1.2,0-2.2-1-2.2-2.2V87.2
			c0-1.2,1-2.2,2.2-2.2c2,0,4.5,0,4.5,0c4.2,0,8.5,2.6,10,6.2c3.5,9.9,5.5,20.6,5.5,31.7C242.4,133.8,240.6,144.2,237.2,153.9
			L237.2,153.9z"/>
		<path class="st0" d="M317.1,143.9c-7.2-7.5-24-25.1-27.3-33.1c-3.3-8-2.5-15.5,1.1-20.3c3-4,9-6.3,15.1-4.3
			c5.3,1.8,11.6,7.3,12.9,23.4c0,1.1,0.9,2.2,2.3,2.2l7.2,0c1.1,0,2.2-0.8,2.3-2.3c0.5-9-2.1-18.4-5.1-23.1
			c-5.4-9-11.8-12.4-21.1-13.6c-9.4-1.2-22.1,2.6-28.7,13.1c-5.8,9.1-7.3,23.9-4,35.4c4.3,14.6,8.3,19,15,27
			c1.1,1.3,8,8.8,10.4,11.1c10.5,10,16.1,17.9,17.1,30.6c0.8,10.1-4.7,19.1-14,18.6c-5.7-0.3-8.5-2.2-12.3-6.3
			c-3.8-4.1-5.3-9.3-6.1-17.7c-0.3-3.1-0.1-8.5-0.1-10.1c0-1.1-0.9-2.2-2.2-2.2h-8.9c-1.4,0-2.3,1.1-2.3,2.2c0,6.5,0.2,13.2,0.9,17
			c2.1,12.3,4.4,16.2,11,22.9c5.5,4.6,12,7.6,20.4,7.6c16.6,0,29-9.9,33.7-24.5c1.7-5.4,2.3-11.1,1.9-16.8
			C335.1,163.2,325.1,152.3,317.1,143.9z"/>
	</g>
</g>
</svg>
