<svg width="160" height="129" viewBox="0 0 160 129" fill="none" xmlns="http://www.w3.org/2000/svg">
<path fill-rule="evenodd" clip-rule="evenodd" d="M140.379 128.032C139.761 127.943 139.017 127.795 138.724 127.703C138.431 127.611 137.96 127.479 137.68 127.407C137.401 127.336 137.147 127.233 137.114 127.179C137.083 127.125 136.971 127.08 136.868 127.08C136.762 127.08 136.225 126.867 135.672 126.605C133.822 125.725 132.395 124.827 131.537 124C131.282 123.754 131.04 123.552 131.002 123.552C130.964 123.554 130.767 123.389 130.563 123.189C130.359 122.988 130.144 122.822 130.084 122.822C130.021 122.822 129.829 122.739 129.652 122.641C129.137 122.349 127.894 122.305 127.311 122.555C127.043 122.672 126.823 122.804 126.823 122.851C126.823 122.898 126.756 122.936 126.673 122.936C126.272 122.936 125.022 124.643 124.407 126.036L124.048 126.841L123.186 126.876C122.711 126.899 122.232 126.876 122.12 126.834C121.918 126.755 121.916 126.285 121.941 101.002L121.968 75.251H123.213C123.898 75.251 124.48 75.2779 124.51 75.307C124.536 75.3384 124.592 75.9185 124.63 76.595C124.669 77.2737 124.769 78.5102 124.852 79.3413C124.937 80.1745 125.034 81.131 125.065 81.4715C125.096 81.8097 125.168 82.4145 125.222 82.8155C125.278 83.2165 125.374 84.0229 125.434 84.6097C125.495 85.1944 125.616 86.1531 125.701 86.7377C126.149 89.7864 126.527 92.2638 126.66 93.0142C126.709 93.292 126.79 93.75 126.874 94.225L126.875 94.2312C126.93 94.5433 126.986 94.8624 127.036 95.1422C127.417 97.2994 128.091 100.579 128.429 101.923C128.489 102.169 128.729 103.152 128.957 104.109C129.186 105.063 129.448 106.123 129.542 106.461C129.636 106.801 129.732 107.153 129.755 107.245C130.084 108.56 131.479 112.829 131.638 113.011C131.69 113.071 131.732 113.183 131.732 113.262C131.732 113.338 131.86 113.694 132.017 114.05C132.173 114.406 132.308 114.724 132.314 114.753C132.494 115.43 133.472 117.473 134.263 118.819C135.508 120.934 136.87 122.412 138.238 123.129C139.024 123.541 139.071 123.552 140.218 123.55C141.83 123.545 142.314 123.337 143.705 122.054C143.929 121.845 144.115 121.635 144.115 121.583C144.115 121.532 144.236 121.35 144.386 121.182C144.688 120.84 145.248 119.802 145.208 119.664C145.192 119.614 145.223 119.574 145.273 119.574C145.324 119.574 145.447 119.334 145.546 119.041C145.647 118.747 145.768 118.427 145.819 118.331C146.025 117.921 146.556 115.392 146.677 114.229C146.845 112.634 146.76 107.888 146.527 105.733C146.184 102.557 145.523 98.8046 144.643 95.0302C144.52 94.5061 144.379 93.9013 144.33 93.6862C143.705 90.9669 142.76 87.6405 141.432 83.4875C140.968 82.0405 140.572 80.7793 140.547 80.6853C140.475 80.4053 139.972 78.8753 139.736 78.2213C139.613 77.8808 139.327 77.0408 139.1 76.3509C138.872 75.6609 138.514 74.6462 138.305 74.0952C138.095 73.5441 137.922 73.0603 137.922 73.02C137.922 72.9797 137.844 72.7601 137.748 72.5294C137.651 72.3009 137.56 72.0635 137.546 72.0008C137.535 71.9403 137.306 71.3086 137.042 70.6008C136.066 67.9643 135.36 66.0356 135.047 65.1329C134.868 64.6222 134.628 63.9659 134.514 63.6747C134.068 62.5547 133.517 61.0113 133.515 60.8791C133.513 60.8007 133.477 60.738 133.434 60.738C133.394 60.738 133.333 60.626 133.302 60.4871C133.271 60.3483 132.998 59.5531 132.695 58.722C132.393 57.8887 132.084 57.0331 132.008 56.8158C131.931 56.6007 131.578 55.6174 131.219 54.6318C130.863 53.6462 130.514 52.6628 130.442 52.4455C130.371 52.2305 130.274 51.9527 130.227 51.8295C130.035 51.3278 129.486 49.7508 129.177 48.8033C128.995 48.25 128.801 47.6945 128.745 47.5713C128.689 47.4481 128.523 46.9687 128.375 46.5073C128.093 45.6158 127.486 43.7252 127.421 43.537C127.401 43.4743 127.372 43.3735 127.358 43.313C127.343 43.2503 127.284 43.0734 127.226 42.921C127.168 42.7665 127.013 42.2625 126.879 41.7988C126.745 41.3374 126.442 40.3047 126.205 39.5028C125.611 37.489 124.861 34.5882 124.725 33.7863C124.693 33.6026 124.622 33.3629 124.568 33.2554C124.512 33.1457 124.487 33.0583 124.514 33.0583C124.539 33.0583 124.519 32.8701 124.467 32.6394C124.373 32.2093 124.044 30.1508 123.842 28.7441C123.654 27.4269 123.603 26.4772 123.607 24.3738C123.609 22.6445 123.659 21.6522 123.887 18.8813C123.936 18.2855 124.342 15.8058 124.53 14.9434C124.613 14.5648 124.702 14.1258 124.729 13.969C124.884 13.0797 125.889 10.0535 126.451 8.79683C126.671 8.30402 126.852 7.83586 126.854 7.7597C126.857 7.68354 126.888 7.62082 126.924 7.62082C126.962 7.62082 127.157 7.32962 127.358 6.9757C127.562 6.62178 127.862 6.12898 128.026 5.88258C128.191 5.63618 128.438 5.25762 128.577 5.04258C129.356 3.83074 131.419 2.01409 132.834 1.28833C133.846 0.770892 135.479 0.224332 136.008 0.224332C136.173 0.224332 136.339 0.172812 136.375 0.112331C136.455 -0.0265488 139.168 -0.0422288 139.248 0.0966514C139.28 0.148171 139.555 0.222092 139.862 0.260172C140.673 0.360972 141.92 0.752972 142.811 1.18753C143.241 1.39809 143.638 1.56833 143.696 1.56833C143.754 1.56833 143.862 1.62209 143.931 1.68705C144.003 1.75201 144.493 2.12385 145.022 2.51586C145.548 2.90562 146.231 3.47234 146.538 3.77474C146.843 4.07714 147.414 4.49826 147.806 4.71106C148.439 5.05602 148.605 5.09858 149.331 5.09186C149.917 5.08738 150.283 5.02018 150.643 4.84994C151.225 4.57442 152.148 3.72546 152.047 3.55522C152.009 3.49026 152.029 3.47234 152.092 3.51266C152.215 3.5933 152.708 2.83394 153.098 1.96033L153.348 1.40033H155.375H157.402L157.429 26.2151C157.451 45.9943 157.429 51.05 157.322 51.1217C157.131 51.2471 155.239 51.2337 155.006 51.106C154.853 51.0187 154.798 50.7947 154.735 50.0129C154.692 49.4708 154.643 48.9018 154.625 48.7473C154.607 48.595 154.56 47.914 154.518 47.2353C154.475 46.5566 154.423 45.907 154.403 45.7905C154.383 45.6762 154.316 44.843 154.256 43.9425C154.193 43.042 154.094 41.9511 154.036 41.521C153.978 41.0887 153.808 39.6775 153.658 38.3828C153.508 37.0881 153.288 35.3229 153.169 34.4605C153.051 33.5981 152.934 32.7402 152.912 32.5543C152.889 32.3706 152.746 31.4119 152.596 30.4263C152.444 29.4385 152.253 28.1796 152.173 27.6241C151.87 25.5834 151.349 22.7028 150.932 20.7876C150.882 20.5554 150.823 20.2831 150.766 20.0155L150.76 19.9923C150.682 19.6303 150.606 19.2794 150.558 19.0516C150.157 17.1834 149.324 14.0317 149.149 13.7293C149.116 13.6688 149.08 13.5434 149.073 13.4493C149.051 13.1492 148.771 12.4391 148.675 12.4391C148.625 12.4391 148.612 12.392 148.645 12.336C148.764 12.1322 147.158 8.35554 146.737 7.8493C146.659 7.75298 146.518 7.52002 146.426 7.32738C146.334 7.13698 145.83 6.51874 145.308 5.9565C144.52 5.10754 144.218 4.86338 143.537 4.53186C142.628 4.09282 142.399 4.03458 141.232 3.95618C138.946 3.80386 136.747 5.22178 135.707 7.52226L135.69 7.56158C135.439 8.1174 135.313 8.39617 135.218 8.68503C135.123 8.97568 135.058 9.27656 134.929 9.88019L134.924 9.90563C134.637 11.2496 134.532 14.361 134.718 16.1463C134.745 16.4131 134.772 16.68 134.797 16.9168C134.837 17.304 134.868 17.6108 134.877 17.7053C134.962 18.552 135.067 19.2576 135.152 19.5556C135.206 19.7392 135.275 20.1693 135.311 20.5076C135.345 20.8458 135.414 21.2759 135.466 21.4596C135.517 21.6455 135.62 22.1495 135.692 22.5818C135.763 23.0119 135.983 24.0468 136.18 24.8778C136.379 25.7111 136.567 26.5421 136.601 26.7281C136.635 26.9117 136.726 27.2657 136.803 27.5121C136.879 27.7585 137.047 28.3633 137.174 28.8561C137.304 29.3489 137.472 29.9559 137.551 30.2023C137.627 30.4487 137.938 31.4813 138.243 32.4983C138.545 33.5153 138.93 34.7517 139.098 35.2445C139.266 35.7373 139.508 36.4676 139.633 36.8685C139.761 37.2695 139.913 37.6615 139.974 37.7377C140.034 37.8138 140.059 37.8788 140.028 37.8788C139.98 37.8788 140.278 38.8241 140.52 39.4468C140.556 39.5386 140.845 40.345 141.163 41.2388C141.481 42.1326 141.938 43.369 142.18 43.985C142.422 44.601 142.619 45.1521 142.619 45.2103C142.619 45.2686 142.719 45.5463 142.843 45.8263C143.246 46.7492 143.349 46.9978 143.747 48.0193C143.962 48.5748 144.227 49.2042 144.332 49.4215C144.437 49.6366 144.61 50.0644 144.715 50.3735C144.82 50.6804 144.968 51.059 145.042 51.2135C145.118 51.3681 145.181 51.5495 145.181 51.619C145.181 51.6884 145.27 51.8631 145.38 52.011C145.492 52.1588 145.584 52.3291 145.588 52.3895C145.606 52.6203 146.088 53.7918 146.166 53.7918C146.211 53.7918 146.249 53.8724 146.249 53.9687C146.249 54.1255 147.743 57.7655 148.603 59.7076C148.775 60.0951 148.916 60.4759 148.916 60.5521C148.916 60.6283 148.981 60.7895 149.06 60.9105C149.138 61.0315 149.456 61.7617 149.765 62.5323C150.072 63.3028 150.412 64.1339 150.518 64.3803C150.93 65.3368 152.896 70.6142 153.42 72.171C153.595 72.6929 153.803 73.2731 153.882 73.459C153.958 73.6427 154.103 74.0728 154.204 74.411C154.305 74.7492 154.417 75.0785 154.45 75.139C154.486 75.2017 154.522 75.3025 154.531 75.363C154.56 75.5601 155.541 78.7141 155.662 79.0053C155.727 79.1598 155.79 79.3614 155.803 79.4533C155.814 79.5473 155.955 80.076 156.112 80.6315C156.268 81.1724 156.434 81.7648 156.489 81.9626L156.492 81.9713L156.493 81.9755C157.355 85.0712 158.502 90.8571 158.784 93.5182C158.882 94.4434 158.986 95.3506 159.01 95.5365C159.203 96.8469 159.295 100.458 159.187 102.498C159.12 103.724 159.046 104.85 159.017 105.005C158.99 105.16 158.936 105.639 158.896 106.069C158.654 108.721 157.857 112.209 156.847 115.036C156.497 116.015 156.363 116.348 155.946 117.269C155.837 117.511 155.747 117.755 155.747 117.811C155.747 117.867 155.653 118.04 155.537 118.196C155.42 118.351 155.351 118.523 155.382 118.577C155.413 118.633 155.4 118.678 155.351 118.678C155.304 118.678 155.145 118.918 154.999 119.209C154.11 120.994 152.209 123.44 150.571 124.903C150.079 125.344 148.292 126.547 147.635 126.883C145.517 127.963 142.834 128.388 140.379 128.032ZM29.3592 124.708C29.3413 126.108 29.3502 126.386 29.4286 126.605H29.4264C29.4644 126.715 31.1755 126.744 37.4843 126.744H45.493V125.073V123.402L45.1997 123.344C45.0384 123.31 44.6174 123.254 44.2658 123.216C43.0922 123.089 41.5044 122.466 41.3633 122.078C41.3319 121.995 41.2491 121.926 41.1774 121.926C40.9781 121.926 40.3779 120.987 40.1203 120.268L39.8896 119.63L39.8605 71.8328C39.8426 45.5464 39.8628 23.8363 39.9031 23.5899L39.9747 23.1419L40.071 23.4779C40.1494 23.7467 40.7899 28.7531 41.0744 31.3224C41.1102 31.6292 41.1505 31.9092 41.1729 31.9406C41.1908 31.9742 41.2603 32.4132 41.3274 32.9195C41.4909 34.1739 41.52 34.3732 41.6343 35.0206C41.9232 36.6513 42.2972 38.804 42.4002 39.4469C42.4674 39.8478 42.5861 40.5288 42.6667 40.9589C42.7473 41.3912 42.9086 42.323 43.0273 43.0331L43.0775 43.3326C43.2001 44.0645 43.38 45.1376 43.5088 45.8891L43.6289 46.6014L43.6291 46.6024C43.729 47.1944 43.8138 47.6963 43.838 47.8514C43.9769 48.7317 44.4897 51.7064 44.7383 53.0616C44.8503 53.6776 44.969 54.3586 45.0003 54.5758C45.0317 54.7909 45.278 56.229 45.5468 57.7678C45.8155 59.309 46.1268 61.1256 46.2411 61.8043C46.353 62.4808 46.5188 63.4642 46.6106 63.9883C46.6824 64.3981 46.8144 65.1817 46.9382 65.9163L47.0383 66.5106C47.1817 67.373 47.3676 68.4571 47.4504 68.9186C47.5333 69.3823 47.7528 70.668 47.9387 71.7768C48.1245 72.8856 48.3463 74.1468 48.4291 74.5791C48.512 75.0092 48.6553 75.8424 48.7471 76.4271C48.8367 77.014 49.0047 78.022 49.1167 78.6693C49.3093 79.7669 49.625 81.606 49.8692 83.0396C49.9274 83.3778 49.9968 83.8079 50.0237 83.9916C50.0797 84.3657 50.924 89.2713 51.251 91.1081C51.3652 91.7554 51.4839 92.461 51.513 92.6783C51.578 93.1599 51.7773 94.318 52.1983 96.6566C52.3752 97.6422 52.6664 99.3558 52.8478 100.467C53.027 101.576 53.2218 102.709 53.28 102.987C53.3383 103.265 53.5801 104.651 53.8175 106.069C54.0549 107.487 54.3438 109.176 54.4625 109.823C54.579 110.471 54.7425 111.429 54.8253 111.954C54.9082 112.475 55.1926 114.14 55.4569 115.65C56.084 119.238 56.3729 120.931 56.4961 121.758C56.552 122.128 56.6663 122.784 56.7514 123.214C56.8365 123.646 56.9843 124.504 57.0806 125.12C57.1746 125.736 57.2956 126.355 57.3471 126.493L57.4434 126.747L62.1689 126.717L66.8921 126.688L66.9459 67.5186L66.9996 8.34889L67.2482 7.70153C67.6469 6.66216 68.3367 5.89384 69.284 5.4324C69.5998 5.27784 69.8842 5.1748 69.9111 5.20392C69.938 5.23304 70.135 5.18152 70.3478 5.0852C70.5605 4.99112 71.0712 4.88584 71.4833 4.85224L71.6059 4.84179C72.0441 4.80476 72.2901 4.78398 72.428 4.65109C72.6043 4.48112 72.604 4.12776 72.6032 3.32247V3.32241L72.603 3.14312C72.603 2.34792 72.5739 1.61768 72.5381 1.52135C72.4799 1.36231 71.6714 1.34439 64.4846 1.34439H56.4961L56.4289 1.7252C56.3079 2.39496 56.4154 4.5924 56.5744 4.6932C56.6528 4.74472 57.0851 4.8164 57.5352 4.85448C58.3795 4.92616 58.7826 5.03368 59.5396 5.39432C59.7815 5.50856 60.0301 5.60264 60.0906 5.60264C60.1533 5.60264 60.4847 5.89384 60.8274 6.25224C61.2887 6.73384 61.5194 7.08776 61.7165 7.62537L61.983 8.34889L62.0099 48.5144C62.0255 70.6076 62.0188 88.6597 61.992 88.6351C61.9673 88.6082 61.8957 88.1333 61.8285 87.5778C61.7635 87.0245 61.665 86.2674 61.6112 85.8978C61.5575 85.5282 61.4858 84.7957 61.4522 84.2716C61.4186 83.7474 61.3694 83.1941 61.3447 83.0396C61.3178 82.885 61.2686 82.381 61.235 81.9196C61.1611 80.9317 60.4937 74.6216 60.3347 73.4008C59.7837 69.1829 59.6919 68.558 59.2619 66.0066C59.2037 65.6661 59.1343 65.2383 59.1074 65.0523C59.0783 64.8687 58.9372 64.0623 58.7938 63.2603C58.6505 62.4584 58.384 60.8949 58.2004 59.7861C58.0167 58.6773 57.8241 57.5416 57.7681 57.2638C57.6561 56.6926 57.3583 54.9566 57.0179 52.8936C56.8902 52.123 56.5767 50.3086 56.3214 48.8594C56.0661 47.4123 55.8107 45.8981 55.7525 45.4971C55.6943 45.0961 55.6002 44.5429 55.542 44.2651C55.486 43.9873 55.3628 43.3064 55.271 42.7531C55.1792 42.1976 54.8634 40.3317 54.5678 38.6046C54.0773 35.7307 53.719 33.6139 53.5555 32.6104C53.457 32.0145 53.2308 30.7064 52.9239 28.9681C52.5454 26.8267 52.1199 24.3336 51.952 23.2516C51.8736 22.7588 51.6832 21.65 51.5287 20.7876C51.1995 18.9553 50.8613 17.0087 50.7874 16.5294C50.7583 16.3435 50.6888 15.9156 50.6306 15.5751C50.5724 15.2369 50.4246 14.3543 50.3014 13.6151C50.176 12.8759 50.055 12.195 50.0282 12.1031C50.0013 12.0091 49.9341 11.6059 49.8759 11.2049C49.8199 10.8039 49.6497 9.79593 49.4974 8.96489C49.2421 7.56712 49.0876 6.65768 48.6441 3.9764C48.5523 3.42312 48.4022 2.60328 48.3104 2.15528L48.1402 1.34439H38.8191C33.6905 1.34439 29.4734 1.38247 29.4443 1.43175C29.4174 1.47879 29.3793 2.21352 29.3614 3.06248C29.3233 4.81192 29.3256 4.81416 30.1296 4.8164C30.8261 4.81864 32.3266 5.242 32.9515 5.6116C34.0309 6.25 34.5998 7.16168 34.8797 8.69385C35.1149 9.99305 35.1082 118.342 34.8708 119.516C34.4116 121.787 33.003 122.992 30.5506 123.212C30.4635 123.22 30.3828 123.226 30.3081 123.233H30.308C29.866 123.27 29.6327 123.289 29.5085 123.416C29.3696 123.557 29.3673 123.833 29.3622 124.416C29.3614 124.506 29.3606 124.603 29.3592 124.708ZM76.8359 126.668C76.7978 126.628 76.7664 125.873 76.7664 124.99C76.7664 124.828 76.7654 124.682 76.7645 124.55C76.7597 123.871 76.7576 123.564 76.9099 123.415C77.0355 123.291 77.2661 123.275 77.6869 123.245C77.7498 123.241 77.817 123.236 77.8886 123.231C77.9296 123.228 77.9721 123.224 78.0161 123.221C79.4517 123.104 80.9231 122.347 81.5793 121.391C81.7584 121.126 82.0115 120.62 82.1392 120.268L82.3698 119.628L82.3967 64.2684C82.4124 33.82 82.3922 8.83274 82.3519 8.7409C82.3138 8.64682 82.2892 8.53482 82.2982 8.49002C82.3385 8.29066 81.9421 7.28938 81.6218 6.77866C80.9679 5.73706 79.6644 5.0337 78.0878 4.87018C77.7429 4.83434 77.3017 4.78058 77.1091 4.75146L76.7597 4.69546L76.7888 3.04681L76.8179 1.40041H88.8803C98.329 1.40041 101.126 1.43177 101.794 1.54601C102.264 1.62889 102.768 1.70953 102.916 1.72521C103.209 1.76329 104.04 2.00297 105.263 2.40617C106.801 2.91465 108.694 3.98313 109.973 5.06506C110.611 5.60714 112.082 7.1393 112.6 7.80458C112.846 8.12042 113.363 8.87754 113.748 9.48458C114.134 10.0916 114.49 10.6449 114.541 10.7121C114.638 10.8398 115.48 12.643 116.028 13.8952C116.407 14.7598 117.256 17.3492 117.497 18.3774C117.594 18.7784 117.712 19.1614 117.762 19.2286C117.813 19.2958 117.831 19.3764 117.802 19.4056C117.773 19.4369 117.849 19.8603 117.968 20.3486C118.496 22.4945 118.976 25.9598 119.374 30.5361C119.591 33.0158 119.556 42.7576 119.32 45.3605C118.586 53.5208 117.444 58.4376 115.155 63.3163C114.911 63.8405 114.68 64.293 114.644 64.3244C114.608 64.3557 114.499 64.5439 114.402 64.741C114.232 65.0927 113.787 65.8341 113.612 66.0604C113.565 66.1231 113.408 66.3493 113.262 66.5666C112.685 67.4312 110.582 69.8146 110.398 69.8146C110.351 69.8146 110.221 69.9221 110.109 70.052C109.764 70.453 107.914 71.6917 106.965 72.1577C105.908 72.6751 104.3 73.2777 103.769 73.3561C103.563 73.3852 103.227 73.4546 103.021 73.5106C102.17 73.7436 100.701 73.8869 98.4858 73.9497L96.1365 74.0191L96.1096 96.4079L96.1068 98.6914C96.0822 118.627 96.0809 119.706 96.4957 120.59C96.5193 120.64 96.5443 120.69 96.5707 120.742L96.571 120.743L96.5711 120.743C96.5883 120.778 96.6062 120.813 96.6247 120.851C97.254 122.139 98.6941 123.046 100.383 123.214C100.748 123.252 101.205 123.306 101.397 123.337L101.747 123.393L101.717 125.042L101.688 126.688L89.2968 126.715C82.4818 126.731 76.8739 126.711 76.8359 126.668ZM0.558324 125.024V123.752L1.30186 123.678C2.92779 123.521 4.01174 123.032 4.9434 122.036C5.29949 121.659 5.60631 121.211 5.68246 120.958C5.75637 120.721 5.85267 120.474 5.89746 120.414C6.20652 119.982 6.21548 118.387 6.21548 63.8852C6.21548 9.7107 6.211 8.64446 6.00944 7.99934C5.84314 7.2093 5.38666 6.59787 5.00727 6.0897L5.00724 6.08967L5.00723 6.08965C4.93699 5.99558 4.8694 5.90505 4.80679 5.81758C4.03638 5.06718 2.21561 4.37054 1.02191 4.37054H0.551605L0.58072 3.10941L0.612074 1.84829L12.6453 1.81917C22.2351 1.79453 24.6807 1.81917 24.6875 1.93117C24.7009 2.22685 24.6673 4.31006 24.6471 4.32798C24.6359 4.33694 24.3134 4.3795 23.9327 4.41758C22.6629 4.54974 21.3998 4.99326 21.0571 5.42558C20.981 5.5219 20.8533 5.60254 20.7727 5.60254C20.5666 5.60254 19.7806 6.67774 19.5028 7.33854C19.373 7.64766 19.2095 8.30398 19.1378 8.79678C19.0348 9.49343 19.0146 21.8515 19.0415 64.5482C19.0751 116.539 19.0863 119.44 19.2632 120.06C19.4737 120.788 19.8343 121.473 20.2755 121.986C20.5398 122.293 21.6148 123.093 21.785 123.109C21.8208 123.113 22.0358 123.2 22.2598 123.304C22.486 123.407 23.0862 123.548 23.5945 123.619C24.1029 123.689 24.58 123.763 24.6539 123.785C24.7502 123.814 24.786 124.166 24.786 125.06V126.296H12.6722H0.558324V125.024ZM103.097 68.3585C102.244 69.3956 100.974 70.0542 99.4465 70.2535C98.3223 70.4014 96.6045 70.4865 96.403 70.4059C96.3156 70.3723 96.2081 70.2871 96.1656 70.2199C96.0738 70.0766 96.0536 5.25536 96.1454 5.00448C96.1969 4.86336 96.4366 4.84544 97.6661 4.89024C101.791 5.04032 103.628 6.44928 104.51 10.1408C104.795 11.328 104.801 11.3504 104.837 11.4557C104.889 11.5946 105.05 12.6787 105.162 13.6151C105.67 17.8935 105.793 22.5347 105.796 37.4621C105.796 44.6593 105.749 51.7959 105.69 53.3191C105.54 57.21 105.384 59.9988 105.267 60.85C105.248 60.9917 105.223 61.1779 105.195 61.3826C105.145 61.7571 105.086 62.1934 105.041 62.5323C104.714 64.9806 103.921 67.3595 103.097 68.3585Z" fill="#007DB3"/>
</svg>
