<svg width="108" height="39" viewBox="0 0 108 39" fill="none" xmlns="http://www.w3.org/2000/svg">
<path d="M72.5 0L72.5 38.25" stroke="#2F6DD5" stroke-width="0.579545"/>
<path d="M81.9709 17.3033V3.73542C81.9709 3.57167 81.8071 3.43131 81.6434 3.4781L81.503 3.50149C81.1989 3.57167 80.848 3.64185 80.4738 3.71203C80.0995 3.78221 79.7486 3.85239 79.4679 3.89917L79.3275 3.92257C79.1637 3.94596 79 3.82899 79 3.66524V2.47221C79 2.35524 79.0702 2.23828 79.1871 2.21489C79.3743 2.1681 79.5848 2.09792 79.8188 2.02774C80.1463 1.93417 80.4504 1.81721 80.8013 1.67685C81.1288 1.53649 81.4563 1.34935 81.7604 1.13881C82.0177 0.951671 82.2516 0.741134 82.4621 0.507205C82.5089 0.437027 82.5791 0.413635 82.6727 0.413635H83.9827C84.123 0.413635 84.24 0.530599 84.24 0.670956V17.2799C84.24 17.4202 84.123 17.5372 83.9827 17.5372H82.2516C82.1112 17.584 81.9709 17.4436 81.9709 17.3033Z" fill="#2F6DD5"/>
<path d="M88.3572 17.3034V16.0402C88.3572 15.9934 88.3806 15.9466 88.404 15.8998L92.7316 9.16268C93.0591 8.64804 93.3633 8.18018 93.6206 7.73572C93.9013 7.29125 94.1118 6.84679 94.299 6.35554C94.4861 5.86429 94.5563 5.30286 94.5563 4.67125C94.5563 3.87589 94.4393 3.26768 94.182 2.79982C93.9247 2.35536 93.4802 2.12143 92.8486 2.12143C92.3106 2.12143 91.8895 2.26179 91.6088 2.56589C91.3281 2.87 91.1175 3.24429 91.0006 3.73554C90.8836 4.22679 90.8368 4.74143 90.8368 5.27947V5.58357C90.8368 5.72393 90.7199 5.8409 90.5795 5.8409H88.8484C88.7081 5.8409 88.5677 5.72393 88.5677 5.58357V5.25607C88.5677 4.22679 88.7081 3.33786 88.9888 2.58929C89.2695 1.84071 89.714 1.27929 90.3222 0.858214C90.9304 0.437143 91.7491 0.25 92.7784 0.25C94.1586 0.25 95.1879 0.647679 95.8663 1.41964C96.5447 2.19161 96.8722 3.29107 96.8722 4.67125C96.8722 5.39643 96.7786 6.05143 96.6149 6.58947C96.4277 7.15089 96.2172 7.66554 95.9365 8.1334C95.6558 8.62465 95.3516 9.1159 95.0008 9.60715L91.3281 15.198C91.2111 15.3852 91.3281 15.6191 91.562 15.6191H96.2172C96.3575 15.6191 96.4745 15.7361 96.4745 15.8998V17.2566C96.4745 17.397 96.3575 17.5139 96.2172 17.5139H88.6613C88.4741 17.5841 88.3572 17.4438 88.3572 17.3034Z" fill="#2F6DD5"/>
<path d="M103.493 17.7479C102.463 17.7479 101.645 17.5608 101.036 17.1631C100.428 16.7654 99.9836 16.204 99.7263 15.4554C99.4924 14.777 99.352 13.9816 99.3286 13.0693C99.3286 12.929 99.4456 12.7886 99.6093 12.7886H101.34C101.481 12.7886 101.598 12.9056 101.598 13.0459C101.621 13.467 101.645 13.8647 101.715 14.2858C101.808 14.777 101.972 15.1747 102.253 15.5022C102.533 15.8297 102.955 15.97 103.516 15.97C104.148 15.97 104.592 15.7829 104.849 15.432C105.107 15.0811 105.294 14.5899 105.364 13.9817C105.434 13.3734 105.481 12.6716 105.481 11.8997C105.481 11.1277 105.434 10.4727 105.364 9.91129C105.27 9.37325 105.107 8.95218 104.826 8.67147C104.569 8.39076 104.124 8.227 103.563 8.227C103.095 8.227 102.697 8.36736 102.37 8.67147C102.089 8.92879 101.878 9.18611 101.715 9.49022C101.668 9.58379 101.574 9.65397 101.481 9.65397H99.9836C99.8433 9.65397 99.7029 9.537 99.7029 9.39665V0.741285C99.7029 0.600928 99.8199 0.460571 99.9836 0.460571H106.838C106.978 0.460571 107.095 0.577535 107.095 0.741285V2.47236C107.095 2.61271 106.978 2.75307 106.838 2.75307H102.019C101.878 2.75307 101.761 2.87004 101.761 3.01039L101.645 6.89361C101.645 7.12754 101.878 7.2445 102.066 7.12754C102.253 7.01057 102.44 6.89361 102.674 6.80004C103.095 6.63629 103.563 6.54272 104.101 6.54272C105.036 6.54272 105.762 6.75325 106.3 7.19772C106.838 7.64218 107.212 8.227 107.423 8.99897C107.633 9.77093 107.75 10.6365 107.75 11.619C107.75 12.4845 107.68 13.3033 107.563 14.0752C107.446 14.8238 107.212 15.4788 106.885 16.0402C106.557 16.6017 106.136 17.0227 105.575 17.3502C105.013 17.6777 104.358 17.7479 103.493 17.7479Z" fill="#2F6DD5"/>
<path d="M60.982 18.0838C59.1815 16.2083 54.9801 11.8069 54.1549 9.80626C53.3296 7.80564 53.5297 5.93005 54.43 4.72968C55.1802 3.72937 56.6807 3.15419 58.2062 3.65434C59.5316 4.10448 61.1071 5.47992 61.4322 9.50617C61.4322 9.78125 61.6572 10.0563 62.0073 10.0563H63.8079C64.083 10.0563 64.3581 9.85628 64.3831 9.48116C64.5081 7.23046 63.8579 4.87973 63.1077 3.70436C61.7573 1.45366 60.1568 0.603397 57.831 0.303304C55.4803 0.00321034 52.3043 0.953507 50.6538 3.57932C49.2033 5.85503 48.8282 9.55618 49.6535 12.4321C50.7288 16.0832 51.7291 17.1836 53.4047 19.1842C53.6797 19.5093 55.4053 21.3849 56.0055 21.96C58.6313 24.4608 60.0317 26.4364 60.2818 29.6124C60.4819 32.1382 59.1064 34.3889 56.7807 34.2639C55.3553 34.1888 54.655 33.7137 53.7047 32.6884C52.7545 31.6631 52.3793 30.3627 52.1793 28.262C52.1043 27.4868 52.1543 26.1363 52.1543 25.7362C52.1543 25.4611 51.9292 25.186 51.6041 25.186H49.3784C49.0283 25.186 48.8032 25.4611 48.8032 25.7362C48.8032 27.3617 48.8532 29.0372 49.0283 29.9875C49.5535 33.0635 50.1286 34.0388 51.7791 35.7143C53.1546 36.8647 54.7801 37.6149 56.8807 37.6149C61.032 37.6149 64.133 35.1391 65.3084 31.488C65.7335 30.1376 65.8835 28.7121 65.7835 27.2867C65.4834 22.9103 62.9826 20.1845 60.982 18.0838Z" fill="#2F6DD5"/>
<path fill-rule="evenodd" clip-rule="evenodd" d="M45.9518 4.72978C45.1265 2.27902 42.8008 0.528473 40.075 0.528473H36.7489H31.6473C31.3472 0.528473 31.0972 0.778554 31.0972 1.07865V36.8148C31.0972 37.1149 31.3472 37.3649 31.6473 37.3649H36.1988C36.4988 37.3649 36.7489 37.1149 36.7489 36.8148V25.8113C36.7489 25.4612 37.024 25.1861 37.3741 25.1861C38.2994 25.1861 40.075 25.1861 40.075 25.1861C42.8008 25.1861 45.1265 23.4106 45.9518 20.9598C46.8771 18.434 47.3772 15.7082 47.3772 12.8573C47.4022 9.98142 46.8771 7.25557 45.9518 4.72978ZM41.0003 20.6097C40.6751 21.61 39.5498 22.3603 38.4495 22.3603C38.4495 22.3603 37.7993 22.3603 37.3241 22.3603C37.024 22.3603 36.7739 22.1102 36.7739 21.8101V3.95454C36.7739 3.65445 37.024 3.40437 37.3241 3.40437C37.8243 3.40437 38.4495 3.40437 38.4495 3.40437C39.4998 3.40437 40.5751 4.05457 40.9502 4.95485C41.8255 7.43062 42.3257 10.1065 42.3257 12.8823C42.3007 15.5582 41.8505 18.184 41.0003 20.6097Z" fill="#2F6DD5"/>
<path d="M27.247 0.528473H23.5708C23.4208 0.528473 23.2958 0.653513 23.2958 0.80356V24.1858C23.2958 24.5109 22.8206 24.586 22.7206 24.2609L15.7434 0.728536C15.7184 0.603497 15.5934 0.528473 15.4683 0.528473H12.9925H11.7422H10.2417H9.59149C9.44145 0.528473 9.31641 0.653513 9.31641 0.80356V37.0899C9.31641 37.2399 9.44145 37.3649 9.59149 37.3649H13.2676C13.4177 37.3649 13.5427 37.2399 13.5427 37.0899V13.7076C13.5427 13.3825 14.0179 13.3075 14.1179 13.6326L21.0951 37.1649C21.1201 37.2899 21.2451 37.3649 21.3702 37.3649H23.8209C23.8209 37.3649 23.8209 37.3649 23.8459 37.3649H27.247C27.397 37.3649 27.5221 37.2399 27.5221 37.0899V0.80356C27.5471 0.653513 27.422 0.528473 27.247 0.528473Z" fill="#2F6DD5"/>
<path d="M5.21487 37.3649H0.663452C0.363358 37.3649 0.113281 37.1149 0.113281 36.8148V1.07865C0.113281 0.778554 0.363358 0.528473 0.663452 0.528473H5.21487C5.51496 0.528473 5.76504 0.778554 5.76504 1.07865V36.8148C5.76504 37.1149 5.51496 37.3649 5.21487 37.3649Z" fill="#2F6DD5"/>
<path d="M79.2529 31.4936L81.657 20.1736C81.6782 20.0714 81.7689 20 81.8731 20H83.0983C83.2025 20 83.2912 20.0733 83.3144 20.1736L85.7319 31.4936C85.7609 31.6306 85.6567 31.7599 85.5159 31.7599H84.418C84.3119 31.7599 84.2212 31.6846 84.2019 31.5785L83.7311 28.9776C83.7118 28.8734 83.6211 28.7963 83.515 28.7963H81.4853C81.3792 28.7963 81.2885 28.8715 81.2692 28.9757L80.7714 31.5804C80.7521 31.6846 80.6614 31.7599 80.5553 31.7599H79.4709C79.3301 31.7599 79.2259 31.6306 79.2549 31.4936H79.2529ZM81.7843 27.6212H83.216C83.353 27.6212 83.4571 27.4958 83.4321 27.3608L82.7105 23.4923C82.6661 23.253 82.3207 23.253 82.2783 23.4923L81.5682 27.3608C81.5432 27.4958 81.6473 27.6212 81.7843 27.6212Z" fill="#2F6DD5"/>
<path d="M88.2139 31.5399V20.22C88.2139 20.0984 88.3123 20 88.4338 20H89.1863C89.2751 20 89.3542 20.0521 89.3889 20.1331L92.2483 26.8225C92.3428 27.0424 92.6709 26.9749 92.6709 26.7356V20.22C92.6709 20.0984 92.7693 20 92.8908 20H93.815C93.9366 20 94.035 20.0984 94.035 20.22V31.5399C94.035 31.6615 93.9366 31.7599 93.815 31.7599H93.1358C93.0471 31.7599 92.968 31.7059 92.9333 31.6248L90.0295 24.7348C89.9368 24.5129 89.6069 24.5805 89.6069 24.8197V31.538C89.6069 31.6595 89.5085 31.7579 89.387 31.7579H88.4338C88.3123 31.7579 88.2139 31.6595 88.2139 31.538V31.5399Z" fill="#2F6DD5"/>
<path d="M97.1123 31.5399V20.22C97.1123 20.0984 97.2107 20 97.3323 20H98.0847C98.1735 20 98.2526 20.0521 98.2873 20.1331L101.147 26.8225C101.241 27.0424 101.569 26.9749 101.569 26.7356V20.22C101.569 20.0984 101.668 20 101.789 20H102.713C102.835 20 102.933 20.0984 102.933 20.22V31.5399C102.933 31.6615 102.835 31.7599 102.713 31.7599H102.034C101.946 31.7599 101.866 31.7059 101.832 31.6248L98.9279 24.7348C98.8353 24.5129 98.5054 24.5805 98.5054 24.8197V31.538C98.5054 31.6595 98.407 31.7579 98.2854 31.7579H97.3323C97.2107 31.7579 97.1123 31.6595 97.1123 31.538V31.5399Z" fill="#2F6DD5"/>
<path d="M106.099 31.5399V20.22C106.099 20.0984 106.197 20 106.319 20H107.49C107.612 20 107.71 20.0984 107.71 20.22V31.5399C107.71 31.6615 107.612 31.7599 107.49 31.7599H106.319C106.197 31.7599 106.099 31.6615 106.099 31.5399Z" fill="#2F6DD5"/>
<path d="M79.4888 35.0001H88.7503V37.8784H79.4888C79.3587 37.8784 79.2502 37.6237 79.2502 37.318V35.586C79.2502 35.2548 79.3587 35.0001 79.4888 35.0001Z" fill="#006221"/>
<path d="M98.2498 35H88.7498V37.8783H98.2498V35Z" fill="white"/>
<path d="M98.2502 35H107.512C107.642 35 107.75 35.2547 107.75 35.5604V37.2924C107.75 37.5981 107.642 37.8528 107.512 37.8528H98.2502V35Z" fill="#CE2B37"/>
<path d="M107.501 35.1275C107.609 35.1275 107.696 35.3313 107.696 35.586V37.318C107.696 37.5727 107.609 37.7765 107.501 37.7765H79.4888C79.3804 37.7765 79.2936 37.5727 79.2936 37.318V35.586C79.2936 35.3313 79.3804 35.1275 79.4888 35.1275H107.501ZM107.501 35.0001H79.4888C79.3587 35.0001 79.2502 35.2548 79.2502 35.5605V37.2925C79.2502 37.5982 79.3587 37.8529 79.4888 37.8529H107.501C107.631 37.8529 107.739 37.5982 107.739 37.2925V35.5605C107.75 35.2548 107.642 35.0001 107.501 35.0001Z" fill="#B0B0B0"/>
</svg>
